<svg width="503" height="105" viewBox="0 0 503 105" fill="none" xmlns="http://www.w3.org/2000/svg">
<path d="M103.429 52.0383L89.116 37.8523L89.0544 37.9133L85.8225 34.71L85.8841 34.649L103.383 17.3208L86.7613 0.839091L69.2628 18.175L69.209 18.2284L65.9771 15.0251L66.0309 14.9717L51.7182 0.778076L0 52.0383L51.7182 103.298L88.862 66.4836L103.375 52.1145L103.444 52.0383H103.429ZM52.2415 74.3774L29.1641 51.4891L51.472 29.4017L54.7039 32.605L35.6356 51.4968L52.2491 67.9784L71.3174 49.0867L74.5493 52.29L52.2415 74.3774Z" fill="url(#paint0_linear_1_3015)"/>
<path d="M86.7646 0.836788L35.6267 51.4865L52.2438 67.9679L103.382 17.3182L86.7646 0.836788Z" fill="url(#paint1_linear_1_3015)"/>
<path d="M86.7652 0.837038L35.6273 51.4867L43.9658 59.7571L95.1036 9.10741L86.7652 0.837038Z" fill="#FF4081"/>
<path d="M136.51 95.0158V96.1598H135.163V94.9472C135.163 93.8031 134.701 93.1167 133.662 93.1167C132.624 93.1167 132.162 93.8031 132.162 94.9472V101.651C132.162 102.788 132.639 103.482 133.662 103.482C134.686 103.482 135.163 102.795 135.163 101.651V100.004H136.51V101.583C136.51 103.504 135.602 104.771 133.624 104.771C131.646 104.771 130.754 103.504 130.754 101.583V95.0234C130.754 93.1014 131.669 91.8354 133.624 91.8354C135.578 91.8354 136.51 93.1014 136.51 95.0234V95.0158Z" fill="#0D47A1"/>
<path d="M143.189 95.0157C143.189 93.0784 144.158 91.8276 146.113 91.8276C148.067 91.8276 149.052 93.0784 149.052 95.0157V101.575C149.052 103.497 148.083 104.763 146.113 104.763C144.143 104.763 143.189 103.497 143.189 101.575V95.0157ZM144.597 101.651C144.597 102.81 145.09 103.482 146.113 103.482C147.136 103.482 147.629 102.81 147.629 101.651V94.947C147.629 93.803 147.152 93.1166 146.113 93.1166C145.074 93.1166 144.597 93.803 144.597 94.947V101.651Z" fill="#0D47A1"/>
<path d="M157.155 104.633H155.878V91.9496H157.686L160.649 101.117V91.9496H161.911V104.633H160.426L157.155 94.3826V104.633Z" fill="#0D47A1"/>
<path d="M174.392 94.9928V95.336H173.038V94.9165C173.038 93.7725 172.599 93.1013 171.576 93.1013C170.552 93.1013 170.114 93.7725 170.114 94.9013C170.114 97.7385 174.415 98.013 174.415 101.582C174.415 103.504 173.484 104.755 171.53 104.755C169.575 104.755 168.659 103.504 168.659 101.582V100.858H169.991V101.651C169.991 102.795 170.46 103.459 171.491 103.459C172.522 103.459 172.984 102.787 172.984 101.651C172.984 98.8215 168.705 98.5545 168.705 94.9852C168.705 93.0327 169.621 91.82 171.537 91.82C173.453 91.82 174.384 93.0708 174.384 94.9852L174.392 94.9928Z" fill="#0D47A1"/>
<path d="M182.495 101.643C182.495 102.78 182.957 103.474 183.996 103.474C185.034 103.474 185.481 102.787 185.481 101.643V91.9496H186.812V101.567C186.812 103.489 185.912 104.778 183.942 104.778C181.972 104.778 181.087 103.489 181.087 101.567V91.9496H182.495V101.643Z" fill="#0D47A1"/>
<path d="M193.707 104.633V91.9496H195.13V103.344H198.785V104.633H193.707Z" fill="#0D47A1"/>
<path d="M206.28 104.633V93.2386H203.926V91.9496H210.043V93.2386H207.688V104.633H206.28Z" fill="#0D47A1"/>
<path d="M217.93 91.9496V104.633H216.507V91.9496H217.93Z" fill="#0D47A1"/>
<path d="M226.141 104.633H224.864V91.9496H226.672L229.635 101.117V91.9496H230.897V104.633H229.411L226.141 94.3826V104.633Z" fill="#0D47A1"/>
<path d="M243.486 95.0157V96.1063H242.131V94.947C242.131 93.803 241.677 93.1166 240.631 93.1166C239.584 93.1166 239.138 93.803 239.138 94.947V101.651C239.138 102.787 239.607 103.482 240.631 103.482C241.654 103.482 242.131 102.795 242.131 101.651V99.1113H240.815V97.8452H243.486V101.575C243.486 103.497 242.57 104.763 240.6 104.763C238.63 104.763 237.73 103.497 237.73 101.575V95.0157C237.73 93.0937 238.645 91.8276 240.6 91.8276C242.555 91.8276 243.486 93.0937 243.486 95.0157Z" fill="#0D47A1"/>
<path d="M264.185 94.9928V95.336H262.831V94.9165C262.831 93.7725 262.392 93.1013 261.369 93.1013C260.345 93.1013 259.907 93.7725 259.907 94.9013C259.907 97.7385 264.208 98.013 264.208 101.582C264.208 103.504 263.277 104.755 261.323 104.755C259.368 104.755 258.452 103.504 258.452 101.582V100.858H259.784V101.651C259.784 102.795 260.253 103.459 261.284 103.459C262.315 103.459 262.777 102.787 262.777 101.651C262.777 98.8215 258.499 98.5545 258.499 94.9852C258.499 93.0327 259.414 91.82 261.33 91.82C263.246 91.82 264.177 93.0708 264.177 94.9852L264.185 94.9928Z" fill="#0D47A1"/>
<path d="M275.489 97.563V98.8291H272.365V103.337H276.205V104.626H270.941V91.942H276.205V93.231H272.365V97.5554H275.489V97.563Z" fill="#0D47A1"/>
<path d="M285.854 91.9496C287.863 91.9496 288.702 92.964 288.702 94.8479V95.8851C288.702 97.2808 288.209 98.1427 287.109 98.4935C288.278 98.8367 288.717 99.7824 288.717 101.14V103.115C288.717 103.68 288.732 104.206 288.979 104.641H287.532C287.37 104.275 287.293 103.954 287.293 103.1V101.11C287.293 99.6757 286.616 99.2257 285.431 99.2257H284.423V104.641H283V91.9573H285.854V91.9496ZM285.485 97.9291C286.616 97.9291 287.293 97.563 287.293 96.1902V94.9775C287.293 93.8335 286.87 93.2386 285.808 93.2386H284.423V97.9291H285.485Z" fill="#0D47A1"/>
<path d="M296.735 91.9496L298.82 102.978L300.883 91.9496H302.199L299.805 104.633H297.705L295.296 91.9496H296.735Z" fill="#0D47A1"/>
<path d="M310.209 91.9496V104.633H308.786V91.9496H310.209Z" fill="#0D47A1"/>
<path d="M322.806 95.0157V96.1597H321.451V94.947C321.451 93.803 320.997 93.1166 319.951 93.1166C318.904 93.1166 318.458 93.803 318.458 94.947V101.651C318.458 102.787 318.928 103.482 319.951 103.482C320.974 103.482 321.451 102.795 321.451 101.651V100.004H322.806V101.582C322.806 103.504 321.89 104.77 319.92 104.77C317.95 104.77 317.05 103.504 317.05 101.582V95.0233C317.05 93.1013 317.966 91.8353 319.92 91.8353C321.875 91.8353 322.806 93.1013 322.806 95.0233V95.0157Z" fill="#0D47A1"/>
<path d="M334.141 97.563V98.8291H331.016V103.337H334.856V104.626H329.593V91.942H334.856V93.231H331.016V97.5554H334.141V97.563Z" fill="#0D47A1"/>
<path d="M347.191 94.9928V95.336H345.837V94.9165C345.837 93.7725 345.398 93.1013 344.375 93.1013C343.351 93.1013 342.913 93.7725 342.913 94.9013C342.913 97.7385 347.214 98.013 347.214 101.582C347.214 103.504 346.283 104.755 344.329 104.755C342.374 104.755 341.458 103.504 341.458 101.582V100.858H342.79V101.651C342.79 102.795 343.259 103.459 344.29 103.459C345.321 103.459 345.783 102.787 345.783 101.651C345.783 98.8215 341.505 98.5545 341.505 94.9852C341.505 93.0327 342.42 91.82 344.336 91.82C346.253 91.82 347.184 93.0708 347.184 94.9852L347.191 94.9928Z" fill="#0D47A1"/>
<path d="M367.914 95.0157V96.1597H366.56V94.947C366.56 93.803 366.106 93.1166 365.059 93.1166C364.013 93.1166 363.566 93.803 363.566 94.947V101.651C363.566 102.787 364.036 103.482 365.059 103.482C366.083 103.482 366.56 102.795 366.56 101.651V100.004H367.914V101.582C367.914 103.504 366.998 104.77 365.028 104.77C363.059 104.77 362.158 103.504 362.158 101.582V95.0233C362.158 93.1013 363.074 91.8353 365.028 91.8353C366.983 91.8353 367.914 93.1013 367.914 95.0233V95.0157Z" fill="#0D47A1"/>
<path d="M374.586 95.0157C374.586 93.0784 375.555 91.8276 377.51 91.8276C379.464 91.8276 380.457 93.0784 380.457 95.0157V101.575C380.457 103.497 379.487 104.763 377.51 104.763C375.532 104.763 374.586 103.497 374.586 101.575V95.0157ZM375.994 101.651C375.994 102.81 376.486 103.482 377.51 103.482C378.533 103.482 379.026 102.81 379.026 101.651V94.947C379.026 93.803 378.556 93.1166 377.51 93.1166C376.463 93.1166 375.994 93.803 375.994 94.947V101.651Z" fill="#0D47A1"/>
<path d="M392.015 104.61H390.645L388.521 94.5199V104.626H387.275V91.942H389.268L391.368 102.071L393.4 91.942H395.393V104.626H394.039V94.4284L392.015 104.61Z" fill="#0D47A1"/>
<path d="M405.143 91.9496C407.151 91.9496 408.013 93.1242 408.013 95.0462V96.5715C408.013 98.585 407.059 99.6299 405.027 99.6299H403.765V104.633H402.342V91.9496H405.135H405.143ZM405.027 98.3638C406.089 98.3638 406.597 97.8757 406.597 96.6631V94.9775C406.597 93.8182 406.174 93.2386 405.135 93.2386H403.765V98.3638H405.027Z" fill="#0D47A1"/>
<path d="M415.816 102.078L415.323 104.633H414.007L416.454 91.9496H418.524L420.971 104.633H419.548L419.055 102.078H415.816ZM416 100.865H418.847L417.408 93.5513L416 100.865Z" fill="#0D47A1"/>
<path d="M428.835 104.633H427.558V91.9496H429.366L432.329 101.117V91.9496H433.591V104.633H432.106L428.835 94.3826V104.633Z" fill="#0D47A1"/>
<path d="M442.802 100.08L440.093 91.9496H441.571L443.564 98.1808L445.572 91.9496H446.926L444.202 100.08V104.626H442.794V100.08H442.802Z" fill="#0D47A1"/>
<path d="M461.762 104.633V91.9496H463.186V103.344H466.841V104.633H461.762Z" fill="#0D47A1"/>
<path d="M474.344 104.633V93.2386H471.989V91.9496H478.107V93.2386H475.752V104.633H474.344Z" fill="#0D47A1"/>
<path d="M487.564 91.9496C489.557 91.9496 490.473 93.1471 490.473 95.1072V101.498C490.473 103.436 489.565 104.633 487.564 104.633H484.57V91.9496H487.564ZM487.548 103.344C488.572 103.344 489.064 102.711 489.064 101.552V95.0309C489.064 93.8716 488.572 93.2386 487.525 93.2386H485.986V103.344H487.541H487.548Z" fill="#0D47A1"/>
<path d="M498.475 102.879V104.633H497.106V102.879H498.475Z" fill="#0D47A1"/>
<path d="M252.235 8.35156H269.333L296.574 72.2266H277.559L272.896 60.9007H248.21L243.64 72.2266H224.987L252.227 8.35156H252.235ZM267.779 47.3096L260.646 29.2797L253.42 47.3096H267.779Z" fill="#0D47A1"/>
<path d="M346.368 8.80157H376.625C381.565 8.80157 385.736 9.4041 389.152 10.6168C392.561 11.8218 395.331 13.515 397.471 15.6886C401.249 19.319 403.142 24.2384 403.142 30.4619V30.6449C403.142 35.5414 401.957 39.5836 399.579 42.7869C397.201 45.9902 394 48.4384 389.983 50.124L405.25 72.2343H384.774L371.885 53.0222H364.113V72.2343H346.376V8.80157H346.368ZM375.809 39.248C378.856 39.248 381.203 38.5693 382.85 37.2117C384.489 35.8541 385.312 34.0236 385.312 31.7279V31.5449C385.312 29.0128 384.458 27.1213 382.758 25.8781C381.049 24.6426 378.702 24.0248 375.717 24.0248H364.105V39.248H375.809Z" fill="#0D47A1"/>
<path d="M413.23 8.80157H431.059V72.2266H413.23V8.80157Z" fill="#0D47A1"/>
<path d="M460.039 39.9726L439.008 8.80157H459.392L503 72.2266H482.616L470.365 53.1061L458.023 72.2266H438.093L460.031 39.965L460.039 39.9726Z" fill="#0D47A1"/>
<path d="M209.658 8.21429L209.497 8.37446V43.9157C209.497 48.385 208.443 51.6798 206.326 53.7925C204.21 55.9127 201.371 56.9653 197.8 56.9653C194.23 56.9653 191.39 55.867 189.267 53.6628C187.15 51.4586 186.096 48.0571 186.096 43.4657V26.0841L168.39 43.8165C168.39 55.0967 169.206 54.4789 170.052 56.7365C171.422 60.3897 173.392 63.41 175.947 65.7972C178.501 68.1844 181.618 69.9538 185.273 71.0978C188.928 72.2419 193.045 72.8215 197.616 72.8215C202.187 72.8215 206.319 72.2495 210.005 71.0978C213.691 69.9538 216.83 68.1844 219.416 65.7972C222.001 63.41 224.017 60.3592 225.449 56.6449C226.88 52.9306 227.595 48.5071 227.595 43.3665V8.21429H209.658Z" fill="#0D47A1"/>
<path d="M154.17 58.3381C151.907 58.3381 149.86 57.9034 147.998 57.0263C146.144 56.1492 144.535 54.9594 143.197 53.4493C141.858 51.9391 140.803 50.1392 140.042 48.0571C139.28 45.9749 138.895 43.7555 138.895 41.3988V41.2158C138.895 38.9201 139.28 36.7464 140.042 34.6872C140.803 32.6355 141.858 30.8585 143.197 29.3407C144.535 27.8306 146.136 26.6408 147.998 25.7637C149.86 24.8866 151.915 24.4519 154.17 24.4519C157.278 24.4519 159.926 25.1231 162.119 26.4501C164.258 27.7391 166.205 29.5085 167.998 31.7203L180.017 19.8071C178.994 18.5792 177.909 17.3894 176.701 16.2988C174.9 14.6666 172.892 13.2633 170.668 12.0887C168.444 10.9066 165.989 10.0066 163.311 9.36596C160.626 8.73293 157.64 8.4126 154.354 8.4126C149.476 8.4126 144.982 9.25918 140.873 10.9523C136.756 12.6455 133.208 14.9793 130.223 17.9767C127.237 20.9664 124.89 24.4748 123.182 28.4865C121.474 32.5059 120.619 36.8074 120.619 41.3988V41.5819C120.619 46.2953 121.489 50.6578 123.228 54.6772C124.967 58.6966 127.314 62.1668 130.269 65.1031C133.224 68.0318 136.717 70.3123 140.734 71.9444C141.388 72.2114 142.058 72.4173 142.727 72.6385L157.455 58.0406C156.424 58.2237 155.347 58.3457 154.177 58.3457L154.17 58.3381Z" fill="#F50057"/>
<path d="M483.932 38.0049L474.098 23.7884L483.886 8.82446L503 8.8092L483.932 38.0049Z" fill="#F50057"/>
<path d="M340.127 8.80157H283.992V24.2079H301.375H325.376H340.127V8.80157Z" fill="#0D47A1"/>
<path d="M320.928 31.8347H303.191V72.2266H320.928V31.8347Z" fill="#0D47A1"/>
<defs>
<linearGradient id="paint0_linear_1_3015" x1="78.3352" y1="25.6569" x2="6.01248" y2="98.6259" gradientUnits="userSpaceOnUse">
<stop stop-color="#1976D2"/>
<stop offset="1" stop-color="#0D47A1"/>
</linearGradient>
<linearGradient id="paint1_linear_1_3015" x1="69.5007" y1="33.2985" x2="69.5007" y2="68.8245" gradientUnits="userSpaceOnUse">
<stop stop-color="#F50057"/>
<stop offset="1" stop-color="#C51162"/>
</linearGradient>
</defs>
</svg>
