<svg width="75" height="75" viewBox="0 0 75 75" fill="none" xmlns="http://www.w3.org/2000/svg">
<path d="M74.489 37.2219L64.2502 26.9824L64.2062 27.0264L61.8942 24.7143L61.9382 24.6702L74.456 12.1626L62.5658 0.265965L50.048 12.7791L50.0095 12.8177L47.6975 10.5055L47.736 10.467L37.4972 0.221924L0.5 37.2219L37.4972 74.2219L64.0686 47.6486L74.4505 37.277L74.5 37.2219H74.489ZM37.8716 53.3465L21.3629 36.8256L37.3211 20.8827L39.6331 23.1948L25.9924 36.8311L37.8771 48.7277L51.5178 35.0914L53.8298 37.4036L37.8716 53.3465Z" fill="url(#paint0_linear_1_3011)"/>
<path d="M62.5682 0.264299L25.9861 36.8236L37.8733 48.72L74.4554 12.1607L62.5682 0.264299Z" fill="url(#paint1_linear_1_3011)"/>
<path d="M62.5686 0.264487L25.9865 36.8238L31.9515 42.7934L68.5336 6.2341L62.5686 0.264487Z" fill="#FF4081"/>
<defs>
<linearGradient id="paint0_linear_1_3011" x1="56.5381" y1="18.1797" x2="4.3329" y2="70.381" gradientUnits="userSpaceOnUse">
<stop stop-color="#1976D2"/>
<stop offset="1" stop-color="#0D47A1"/>
</linearGradient>
<linearGradient id="paint1_linear_1_3011" x1="50.2182" y1="23.6954" x2="50.2182" y2="49.3384" gradientUnits="userSpaceOnUse">
<stop stop-color="#F50057"/>
<stop offset="1" stop-color="#C51162"/>
</linearGradient>
</defs>
</svg>
