<svg width="435" height="75" viewBox="0 0 435 75" fill="none" xmlns="http://www.w3.org/2000/svg">
<path d="M149.886 0.935303H169.293L200.211 74.0967H178.629L173.337 61.1242H145.318L140.13 74.0967H118.959L149.886 0.935303ZM167.529 45.5572L159.432 24.906L151.231 45.5572H167.529Z" fill="#0D47A1"/>
<path d="M256.729 1.45074H291.071C296.678 1.45074 301.412 2.14086 305.29 3.52984C309.159 4.91008 312.303 6.8494 314.731 9.33907C319.019 13.4973 321.168 19.1318 321.168 26.2601V26.4697C321.168 32.0781 319.823 36.708 317.124 40.377C314.425 44.046 310.792 46.8501 306.233 48.7807L323.561 74.1055H300.32L285.691 52.1003H276.869V74.1055H256.737V1.45074H256.729ZM290.145 36.3236C293.603 36.3236 296.267 35.5461 298.136 33.9912C299.997 32.4362 300.931 30.3397 300.931 27.7102V27.5006C300.931 24.6003 299.962 22.4339 298.032 21.0099C296.093 19.5948 293.429 18.8872 290.04 18.8872H276.86V36.3236H290.145Z" fill="#0D47A1"/>
<path d="M332.609 1.45074H352.846V74.0967H332.609V1.45074Z" fill="#0D47A1"/>
<path d="M385.738 37.1535L361.868 1.45074H385.004L434.5 74.0967H411.364L397.459 52.1963L383.45 74.0967H360.829L385.729 37.1448L385.738 37.1535Z" fill="#0D47A1"/>
<path d="M101.561 0.778076L101.377 0.961526V41.6698C101.377 46.7889 100.181 50.5628 97.779 52.9825C95.3771 55.4111 92.1543 56.6166 88.1017 56.6166C84.0491 56.6166 80.8263 55.3586 78.4157 52.834C76.0139 50.3094 74.8173 46.4133 74.8173 41.1544V21.2458L54.7205 41.5563C54.7205 54.4763 55.6463 53.7687 56.607 56.3545C58.1616 60.5389 60.3975 63.9982 63.2972 66.7325C66.1969 69.4668 69.7342 71.4935 73.8828 72.8038C78.0314 74.1142 82.7041 74.7781 87.8921 74.7781C93.0801 74.7781 97.7702 74.1229 101.954 72.8038C106.137 71.4935 109.701 69.4668 112.635 66.7325C115.57 63.9982 117.858 60.504 119.483 56.2497C121.107 51.9954 121.92 46.9287 121.92 41.0409V0.778076H101.561Z" fill="#0D47A1"/>
<path d="M38.5801 58.189C36.0123 58.189 33.6891 57.6911 31.5755 56.6865C29.4706 55.6819 27.6452 54.3191 26.1255 52.5894C24.6058 50.8598 23.4092 48.7981 22.5446 46.4133C21.6799 44.0284 21.2432 41.4864 21.2432 38.787V38.5774C21.2432 35.9479 21.6799 33.4583 22.5446 31.0996C23.4092 28.7497 24.6058 26.7143 26.1255 24.9759C27.6452 23.2462 29.4619 21.8835 31.5755 20.8789C33.6891 19.8743 36.0211 19.3763 38.5801 19.3763C42.1087 19.3763 45.1131 20.1451 47.6023 21.6651C50.0304 23.1414 52.2401 25.1681 54.2751 27.7014L67.9176 14.0563C66.7559 12.6499 65.5244 11.2871 64.1532 10.0379C62.1095 8.16845 59.8299 6.56108 57.3058 5.21579C54.7817 3.86176 51.9955 2.83095 48.9561 2.09715C45.9079 1.37209 42.5192 1.00519 38.7897 1.00519C33.2524 1.00519 28.1518 1.97485 23.4878 3.91417C18.8151 5.85349 14.7888 8.52661 11.4 11.9597C8.01122 15.3841 5.34736 19.4025 3.40841 23.9975C1.46947 28.6012 0.5 33.5281 0.5 38.787V38.9967C0.5 44.3953 1.48694 49.3922 3.46082 53.9959C5.4347 58.5996 8.09856 62.5743 11.4524 65.9375C14.8063 69.292 18.7715 71.904 23.3306 73.7735C24.073 74.0792 24.8329 74.3151 25.5927 74.5684L42.3095 57.8483C41.1392 58.058 39.9164 58.1977 38.5889 58.1977L38.5801 58.189Z" fill="#F50057"/>
<path d="M412.866 34.8909L401.704 18.6164L412.805 1.47694L434.5 1.45947L412.866 34.8909Z" fill="#F50057"/>
<path d="M249.637 1.45074H185.922V19.0968H205.661H232.894H249.637V1.45074Z" fill="#0D47A1"/>
<path d="M227.845 27.8325H207.714V74.0967H227.845V27.8325Z" fill="#0D47A1"/>
</svg>
