<svg width="25" height="23" viewBox="0 0 25 23" fill="none" xmlns="http://www.w3.org/2000/svg">
<path id="Vector" d="M0 2.25C0 1.2835 0.783502 0.5 1.75 0.5H23.25C24.2165 0.5 25 1.2835 25 2.25V2.25C25 3.2165 24.2165 4 23.25 4H1.75C0.783502 4 0 3.2165 0 2.25V2.25ZM8 11.5C8 10.3954 8.89543 9.5 10 9.5H23C24.1046 9.5 25 10.3954 25 11.5V11.5C25 12.6046 24.1046 13.5 23 13.5H10C8.89543 13.5 8 12.6046 8 11.5V11.5ZM0 20.75C0 19.7835 0.783502 19 1.75 19H23.25C24.2165 19 25 19.7835 25 20.75V20.75C25 21.7165 24.2165 22.5 23.25 22.5H1.75C0.783502 22.5 0 21.7165 0 20.75V20.75Z" fill="black"/>
</svg>
